<svg width="96" height="96" viewBox="0 0 96 96" fill="none" xmlns="http://www.w3.org/2000/svg">
<path d="M47.5148 57.5031C42.0068 57.5031 37.5265 53.022 37.5265 47.5148C37.5265 42.0075 42.0068 37.5264 47.5148 37.5264C53.0229 37.5264 57.5039 42.0075 57.5039 47.5148C57.5039 53.022 53.0229 57.5031 47.5148 57.5031ZM55.4479 0.660184C54.6281 0.522338 53.8448 1.07737 53.7062 1.90007C53.5677 2.7235 54.1227 3.5039 54.9461 3.64175C76.4202 7.25127 92.0056 25.703 92.0056 47.5148C92.0056 72.0469 72.0471 92.0048 47.5148 92.0048C22.9827 92.0048 3.02423 72.0469 3.02423 47.5148C3.02423 23.4887 22.1679 3.84961 46.0029 3.04952V11.4268C26.7815 12.2232 11.3881 28.1018 11.3881 47.5148C11.3881 67.4353 27.5946 83.6421 47.5148 83.6421C48.3499 83.6421 49.0268 82.9646 49.0268 82.1296V72.0811C58.8438 71.4774 67.458 65.0504 70.7518 55.6892C71.0289 54.9016 70.6146 54.0387 69.827 53.7609C69.04 53.483 68.1757 53.8972 67.8986 54.6864C64.8623 63.3175 56.6703 69.1173 47.5148 69.1173C35.6032 69.1173 25.9128 59.4271 25.9128 47.5148C25.9128 35.6031 35.6032 25.913 47.5148 25.913C58.9181 25.913 68.2866 34.7943 69.0648 46.0028H60.4323C59.6796 39.5386 54.1781 34.5025 47.5148 34.5025C40.3395 34.5025 34.5019 40.3402 34.5019 47.5148C34.5019 54.6893 40.3395 60.527 47.5148 60.527C54.1781 60.527 59.6796 55.4909 60.4323 49.0274H70.6292C71.4643 49.0274 72.1412 48.3499 72.1412 47.5148C72.1412 33.9358 61.0938 22.8892 47.5148 22.8892C33.9359 22.8892 22.8887 33.9358 22.8887 47.5148C22.8887 60.5861 33.1256 71.3059 46.0029 72.0899V80.5831C28.449 79.7905 14.412 65.2612 14.412 47.5148C14.412 29.2622 29.2618 14.4127 47.5148 14.4127C65.7682 14.4127 80.6176 29.2622 80.6176 47.5148C80.6169 63.0921 70.0231 76.3683 54.8542 79.8014C54.0403 79.9851 53.529 80.7948 53.7135 81.6102C53.8981 82.4242 54.7098 82.9367 55.5216 82.7501C72.0777 79.0033 83.6415 64.5143 83.6415 47.5148C83.6415 28.1018 68.2479 12.2232 49.0268 11.4268V1.51206C49.0268 0.677692 48.3499 0.000132637 47.5148 0.000132637C21.3151 0.000132637 0 21.316 0 47.5148C0 73.7142 21.3151 95.0293 47.5148 95.0293C73.7144 95.0293 95.0295 73.7142 95.0295 47.5148C95.0295 24.2209 78.3829 4.51477 55.4479 0.660184" fill="#F8A910"/>
</svg>
